<svg id="visual" viewBox="0 0 900 600" width="900" height="600" xmlns="http://www.w3.org/2000/svg" xmlns:xlink="http://www.w3.org/1999/xlink" version="1.1"><rect x="0" y="0" width="900" height="600" fill="#ffffff"></rect><path d="M0 364L6.5 355.5C13 347 26 330 39 355.7C52 381.3 65 449.7 78 461.2C91 472.7 104 427.3 117.2 435.2C130.3 443 143.7 504 156.8 507.3C170 510.7 183 456.3 196 445.7C209 435 222 468 235 478.2C248 488.3 261 475.7 274 460.8C287 446 300 429 313 404.8C326 380.7 339 349.3 352 365.2C365 381 378 444 391 473.3C404 502.7 417 498.3 430.2 497C443.3 495.7 456.7 497.3 469.8 472.8C483 448.3 496 397.7 509 409.7C522 421.7 535 496.3 548 517.7C561 539 574 507 587 470.5C600 434 613 393 626 395.5C639 398 652 444 665 461.5C678 479 691 468 704 457.7C717 447.3 730 437.7 743.2 447.3C756.3 457 769.7 486 782.8 511C796 536 809 557 822 529.7C835 502.3 848 426.7 861 393.5C874 360.3 887 369.7 893.5 374.3L900 379L900 601L893.5 601C887 601 874 601 861 601C848 601 835 601 822 601C809 601 796 601 782.8 601C769.7 601 756.3 601 743.2 601C730 601 717 601 704 601C691 601 678 601 665 601C652 601 639 601 626 601C613 601 600 601 587 601C574 601 561 601 548 601C535 601 522 601 509 601C496 601 483 601 469.8 601C456.7 601 443.3 601 430.2 601C417 601 404 601 391 601C378 601 365 601 352 601C339 601 326 601 313 601C300 601 287 601 274 601C261 601 248 601 235 601C222 601 209 601 196 601C183 601 170 601 156.8 601C143.7 601 130.3 601 117.2 601C104 601 91 601 78 601C65 601 52 601 39 601C26 601 13 601 6.5 601L0 601Z" fill="#ff1100"></path><path d="M0 472L6.5 475.8C13 479.7 26 487.3 39 506.5C52 525.7 65 556.3 78 542C91 527.7 104 468.3 117.2 431.7C130.3 395 143.7 381 156.8 391.5C170 402 183 437 196 448.7C209 460.3 222 448.7 235 440.5C248 432.3 261 427.7 274 417.2C287 406.7 300 390.3 313 419.2C326 448 339 522 352 531.7C365 541.3 378 486.7 391 463.8C404 441 417 450 430.2 477.7C443.3 505.3 456.7 551.7 469.8 567C483 582.3 496 566.7 509 565.8C522 565 535 579 548 547.2C561 515.3 574 437.7 587 406C600 374.3 613 388.7 626 410.5C639 432.3 652 461.7 665 487.3C678 513 691 535 704 516.8C717 498.7 730 440.3 743.2 406.8C756.3 373.3 769.7 364.7 782.8 395.3C796 426 809 496 822 495.8C835 495.7 848 425.3 861 423.5C874 421.7 887 488.3 893.5 521.7L900 555L900 601L893.5 601C887 601 874 601 861 601C848 601 835 601 822 601C809 601 796 601 782.8 601C769.7 601 756.3 601 743.2 601C730 601 717 601 704 601C691 601 678 601 665 601C652 601 639 601 626 601C613 601 600 601 587 601C574 601 561 601 548 601C535 601 522 601 509 601C496 601 483 601 469.8 601C456.7 601 443.3 601 430.2 601C417 601 404 601 391 601C378 601 365 601 352 601C339 601 326 601 313 601C300 601 287 601 274 601C261 601 248 601 235 601C222 601 209 601 196 601C183 601 170 601 156.8 601C143.7 601 130.3 601 117.2 601C104 601 91 601 78 601C65 601 52 601 39 601C26 601 13 601 6.5 601L0 601Z" fill="#ff581b"></path><path d="M0 522L6.5 509C13 496 26 470 39 455C52 440 65 436 78 437.5C91 439 104 446 117.2 450.8C130.3 455.7 143.7 458.3 156.8 473.8C170 489.3 183 517.7 196 521C209 524.3 222 502.7 235 503.8C248 505 261 529 274 544C287 559 300 565 313 557.3C326 549.7 339 528.3 352 512.8C365 497.3 378 487.7 391 483.8C404 480 417 482 430.2 488.3C443.3 494.7 456.7 505.3 469.8 509C483 512.7 496 509.3 509 491C522 472.7 535 439.3 548 426.2C561 413 574 420 587 443.5C600 467 613 507 626 532.8C639 558.7 652 570.3 665 554.2C678 538 691 494 704 486.2C717 478.3 730 506.7 743.2 527.2C756.3 547.7 769.7 560.3 782.8 557.8C796 555.3 809 537.7 822 531.7C835 525.7 848 531.3 861 530.3C874 529.3 887 521.7 893.5 517.8L900 514L900 601L893.5 601C887 601 874 601 861 601C848 601 835 601 822 601C809 601 796 601 782.8 601C769.7 601 756.3 601 743.2 601C730 601 717 601 704 601C691 601 678 601 665 601C652 601 639 601 626 601C613 601 600 601 587 601C574 601 561 601 548 601C535 601 522 601 509 601C496 601 483 601 469.8 601C456.7 601 443.3 601 430.2 601C417 601 404 601 391 601C378 601 365 601 352 601C339 601 326 601 313 601C300 601 287 601 274 601C261 601 248 601 235 601C222 601 209 601 196 601C183 601 170 601 156.8 601C143.7 601 130.3 601 117.2 601C104 601 91 601 78 601C65 601 52 601 39 601C26 601 13 601 6.5 601L0 601Z" fill="#ff7e39"></path><path d="M0 577L6.5 579.7C13 582.3 26 587.7 39 583C52 578.3 65 563.7 78 555C91 546.3 104 543.7 117.2 536.8C130.3 530 143.7 519 156.8 512C170 505 183 502 196 497.2C209 492.3 222 485.7 235 501.2C248 516.7 261 554.3 274 561.5C287 568.7 300 545.3 313 544.3C326 543.3 339 564.7 352 575C365 585.3 378 584.7 391 570.7C404 556.7 417 529.3 430.2 523.3C443.3 517.3 456.7 532.7 469.8 524.7C483 516.7 496 485.3 509 479C522 472.7 535 491.3 548 504C561 516.7 574 523.3 587 523.8C600 524.3 613 518.7 626 519.7C639 520.7 652 528.3 665 540.7C678 553 691 570 704 556.2C717 542.3 730 497.7 743.2 483.2C756.3 468.7 769.7 484.3 782.8 490.8C796 497.3 809 494.7 822 487.5C835 480.3 848 468.7 861 481C874 493.3 887 529.7 893.5 547.8L900 566L900 601L893.5 601C887 601 874 601 861 601C848 601 835 601 822 601C809 601 796 601 782.8 601C769.7 601 756.3 601 743.2 601C730 601 717 601 704 601C691 601 678 601 665 601C652 601 639 601 626 601C613 601 600 601 587 601C574 601 561 601 548 601C535 601 522 601 509 601C496 601 483 601 469.8 601C456.7 601 443.3 601 430.2 601C417 601 404 601 391 601C378 601 365 601 352 601C339 601 326 601 313 601C300 601 287 601 274 601C261 601 248 601 235 601C222 601 209 601 196 601C183 601 170 601 156.8 601C143.7 601 130.3 601 117.2 601C104 601 91 601 78 601C65 601 52 601 39 601C26 601 13 601 6.5 601L0 601Z" fill="#ff9d5a"></path><path d="M0 598L6.5 588.7C13 579.3 26 560.7 39 548.2C52 535.7 65 529.3 78 530.5C91 531.7 104 540.3 117.2 536.3C130.3 532.3 143.7 515.7 156.8 520.3C170 525 183 551 196 554.2C209 557.3 222 537.7 235 525C248 512.3 261 506.7 274 508C287 509.3 300 517.7 313 526.8C326 536 339 546 352 544.7C365 543.3 378 530.7 391 527.5C404 524.3 417 530.7 430.2 533.3C443.3 536 456.7 535 469.8 532.7C483 530.3 496 526.7 509 530.2C522 533.7 535 544.3 548 556.7C561 569 574 583 587 584.8C600 586.7 613 576.3 626 576.2C639 576 652 586 665 580.7C678 575.3 691 554.7 704 551.7C717 548.7 730 563.3 743.2 574C756.3 584.7 769.7 591.3 782.8 594.5C796 597.7 809 597.3 822 581.5C835 565.7 848 534.3 861 532C874 529.7 887 556.3 893.5 569.7L900 583L900 601L893.5 601C887 601 874 601 861 601C848 601 835 601 822 601C809 601 796 601 782.8 601C769.7 601 756.3 601 743.2 601C730 601 717 601 704 601C691 601 678 601 665 601C652 601 639 601 626 601C613 601 600 601 587 601C574 601 561 601 548 601C535 601 522 601 509 601C496 601 483 601 469.8 601C456.7 601 443.3 601 430.2 601C417 601 404 601 391 601C378 601 365 601 352 601C339 601 326 601 313 601C300 601 287 601 274 601C261 601 248 601 235 601C222 601 209 601 196 601C183 601 170 601 156.8 601C143.7 601 130.3 601 117.2 601C104 601 91 601 78 601C65 601 52 601 39 601C26 601 13 601 6.5 601L0 601Z" fill="#ffb87e"></path></svg>